# xmcd
#
# Track frame offsets:
#        187
#        23687
#        43125
#        66020
#
# Disc length: 1190 seconds
#
# Revision: 0
# Processed by: cddbd v1.5.1PL2 Copyright (c) Steve Scherf et al.
# Submitted via: ExactAudioCopy v0.95a5
#
DISCID=2c04a404
DTITLE=AEROSMITH - CRYIN'
DYEAR=1993
DGENRE=Hard Rock
TTITLE0=CRYIN' (LP Vresion)
TTITLE1=FEVER (LP Version)
TTITLE2=HEAD FIRST (Previously Unreleased)
TTITLE3=LIVIN' ON THE EDGE (Demo Version)
EXTD=
EXTT0=
EXTT1=
EXTT2=
EXTT3=
PLAYORDER=
